#!OML:ASF H:\Not Pregnant\Project 1\Capture day 1\Session 1\non-pregnant.ASF
:FULLY-SPECIFIED
:DEGREES
1620
root 8.34372 16.2006 25.6752 -165.232 -79.4517 185.501
lowerback 5.73546 -4.27201 6.0563
upperback -4.93654 -5.5817 -3.53659
thorax -9.46488 -3.31728 -6.38436
lowerneck 3.13461 -6.85976 -27.6599
upperneck -4.27714 -12.5619 43.1658
head 3.78389 -7.77072 21.3233
rclavicle -4.65156e-014 2.70347e-014
rhumerus -21.1603 -20.7834 -33.9867
rradius 49.5963
rwrist 19.1015
rhand -2.18342 3.70572
rfingers 7.12502
rthumb 23.4975 -24.8792
lclavicle -4.65156e-014 2.70347e-014
lhumerus -44.5599 -38.2827 112.535
lradius 22.6205
lwrist 0.583228
lhand 14.5171 -1.45891
lfingers 7.12502
lthumb 39.3969 23.9462
rfemur -34.7118 -31.1794 42.4379
rtibia 22.8354
rfoot -7.00348 35.9578
rtoes 25.3698
lfemur -214.058 59.2245 -160.947
ltibia 161.689
lfoot -11.5575 -18.707
ltoes -49.0882
1621
root 8.34812 16.204 25.6697 -165.071 -79.4517 185.372
lowerback 5.8779 -4.30047 5.95014
upperback -4.96472 -5.62974 -3.57747
thorax -9.58132 -3.34013 -6.35071
lowerneck 3.15634 -6.87026 -27.5866
upperneck -4.40904 -12.5819 43.2988
head 3.76673 -7.80554 21.3874
rclavicle 4.37326e-014 6.36111e-014
rhumerus -21.2244 -20.648 -34.2029
rradius 49.7731
rwrist 18.9868
rhand -2.44042 3.57819
rfingers 7.12502
rthumb 23.2509 -25.0381
lclavicle 4.37326e-014 6.36111e-014
lhumerus -44.6515 -38.1838 112.514
lradius 22.6543
lwrist 0.510021
lhand 14.462 -1.17256
lfingers 7.12502
lthumb 39.345 24.2478
rfemur -34.6803 -31.0633 42.3918
rtibia 22.7379
rfoot -6.92285 35.8629
rtoes 25.1404
lfemur -214.551 59.2869 -161.462
ltibia 161.673
lfoot -11.7745 -18.6898
ltoes -49.0179
1622
root 8.35273 16.208 25.6642 -164.818 -79.4419 185.153
lowerback 6.01924 -4.32993 5.82358
upperback -4.98871 -5.68289 -3.62869
thorax -9.69221 -3.36427 -6.31598
lowerneck 3.17678 -6.882 -27.4944
upperneck -4.55441 -12.6038 43.4462
head 3.74762 -7.84418 21.4555
rclavicle 1.94809e-014 5.08889e-014
rhumerus -21.2838 -20.5053 -34.4614
rradius 49.9563
rwrist 18.8823
rhand -2.71005 3.43281
rfingers 7.12502
rthumb 22.9922 -25.2159
lclavicle 1.94809e-014 5.08889e-014
lhumerus -44.7369 -38.0659 112.467
lradius 22.7061
lwrist 0.414871
lhand 14.4056 -0.85892
lfingers 7.12502
lthumb 39.2918 24.5769
rfemur -34.6609 -30.9753 42.3441
rtibia 22.6371
rfoot -6.82882 35.8029
rtoes 24.8828
lfemur -215.209 59.3357 -162.185
ltibia 161.643
lfoot -12.0524 -18.6755
ltoes -48.8967
1623
root 8.35737 16.2124 25.6588 -164.622 -79.429 185.005
lowerback 6.14649 -4.35656 5.71524
upperback -5.00617 -5.73147 -3.68137
thorax -9.78907 -3.38677 -6.29494
lowerneck 3.1957 -6.90055 -27.3918
upperneck -4.72288 -12.633 43.6085
head 3.72759 -7.88961 21.5288
rclavicle 3.97569e-016 2.06736e-014
rhumerus -21.3498 -20.3609 -34.7485
rradius 50.1564
rwrist 18.7777
rhand -2.98001 3.26477
rfingers 7.12502
rthumb 22.7331 -25.416
lclavicle 3.97569e-016 2.06736e-014
lhumerus -44.8114 -37.946 112.401
lradius 22.7964
lwrist 0.299755
lhand 14.3939 -0.432138
lfingers 7.12502
lthumb 39.2808 25.0069
rfemur -34.665 -30.9305 42.3395
rtibia 22.5308
rfoot -6.70914 35.7999
rtoes 24.5649
lfemur -215.992 59.362 -163.02
ltibia 161.61
lfoot -12.3343 -18.7025
ltoes -48.6443
1624
root 8.362 16.2172 25.6536 -164.459 -79.4134 184.907
lowerback 6.25352 -4.3806 5.61994
upperback -5.01872 -5.77661 -3.73577
thorax -9.86967 -3.40797 -6.28515
lowerneck 3.32508 -6.88071 -27.5117
upperneck -4.96533 -12.6595 43.5651
head 3.76449 -7.97603 22.0499
rclavicle -1.66979e-014 6.36111e-014
rhumerus -21.4281 -20.2112 -35.0635
rradius 50.3792
rwrist 18.6625
rhand -3.26202 3.08271
rfingers 7.12502
rthumb 22.4625 -25.631
lclavicle -1.66979e-014 6.36111e-014
lhumerus -44.8757 -37.8253 112.31
lradius 22.9341
lwrist 0.171496
lhand 14.4533 0.124263
lfingers 7.12502
lthumb 39.3368 25.547
rfemur -34.6934 -30.9224 42.372
rtibia 22.4156
rfoot -6.55273 35.8506
rtoes 24.2241
lfemur -216.879 59.3567 -163.979
ltibia 161.566
lfoot -12.6625 -18.7264
ltoes -48.32
1625
root 8.36679 16.2221 25.6484 -164.372 -79.3888 184.907
lowerback 6.33867 -4.39871 5.5351
upperback -5.02619 -5.81236 -3.7793
thorax -9.92991 -3.42391 -6.27255
lowerneck 3.34912 -6.90881 -27.3973
upperneck -5.1861 -12.6919 43.7325
head 3.73236 -8.02724 22.1272
rclavicle -5.36719e-014 -4.77083e-015
rhumerus -21.5143 -20.054 -35.3924
rradius 50.6347
rwrist 18.5305
rhand -3.53668 2.9186
rfingers 7.12502
rthumb 22.1988 -25.8267
lclavicle -5.36719e-014 -4.77083e-015
lhumerus -44.9145 -37.6942 112.187
lradius 23.0654
lwrist 0.151488
lhand 14.4721 0.523973
lfingers 7.12502
lthumb 39.3545 25.9415
rfemur -34.7437 -30.9175 42.4424
rtibia 22.2908
rfoot -6.36343 35.9307
rtoes 23.8648
lfemur -217.792 59.3066 -164.977
ltibia 161.515
lfoot -13.0476 -18.7053
ltoes -48.0127
1626
root 8.37148 16.2271 25.6435 -164.367 -79.3575 185.008
lowerback 6.40243 -4.41276 5.47336
upperback -5.02852 -5.8399 -3.81365
thorax -9.97193 -3.43622 -6.26597
lowerneck 3.36675 -6.9428 -27.2893
upperneck -5.42694 -12.7253 43.8982
head 3.69765 -8.07907 22.2037
rclavicle 9.18385e-014 3.65764e-014
rhumerus -21.6092 -19.8857 -35.734
rradius 50.9265
rwrist 18.3754
rhand -3.80263 2.7678
rfingers 7.12502
rthumb 21.9435 -26.0077
lclavicle 9.18385e-014 3.65764e-014
lhumerus -44.9164 -37.5401 112.018
lradius 23.1877
lwrist 0.24075
lhand 14.4592 0.760297
lfingers 7.12502
lthumb 39.3424 26.1814
rfemur -34.8211 -30.9556 42.5655
rtibia 22.1601
rfoot -6.14107 36.0793
rtoes 23.5285
lfemur -218.807 59.1844 -166.135
ltibia 161.453
lfoot -13.5958 -18.5515
ltoes -47.9064
1627
root 8.37626 16.2327 25.6384 -164.213 -79.2968 184.971
lowerback 6.454 -4.42089 5.36541
upperback -5.02974 -5.86439 -3.8426
thorax -9.99861 -3.44314 -6.22866
lowerneck 3.37694 -6.97664 -27.1916
upperneck -5.67969 -12.7506 44.0554
head 3.65795 -8.12569 22.278
rclavicle -3.18055e-015 1.74931e-014
rhumerus -21.6998 -19.6956 -36.0872
rradius 51.2537
rwrist 18.1991
rhand -4.05201 2.63769
rfingers 7.12502
rthumb 21.704 -26.1656
lclavicle -3.18055e-015 1.74931e-014
lhumerus -44.8573 -37.3219 111.774
lradius 23.2785
lwrist 0.452137
lhand 14.3971 0.727826
lfingers 7.12502
lthumb 39.2838 26.166
rfemur -34.9126 -30.9887 42.6698
rtibia 22.0274
rfoot -5.90768 36.2519
rtoes 23.2134
lfemur -219.891 58.9999 -167.479
ltibia 161.363
lfoot -14.3305 -18.221
ltoes -48.102
1628
root 8.38109 16.2393 25.6333 -163.797 -79.2027 184.679
lowerback 6.4936 -4.42103 5.19512
upperback -5.03026 -5.88554 -3.87186
thorax -10.0092 -3.44378 -6.15774
lowerneck 3.37478 -7.01365 -27.1137
upperneck -5.94164 -12.7728 44.2035
head 3.61817 -8.16866 22.3513
rclavicle 4.33351e-014 -3.18055e-014
rhumerus -21.7851 -19.4889 -36.4431
rradius 51.6155
rwrist 18.0096
rhand -4.26936 2.5306
rfingers 7.12502
rthumb 21.4953 -26.2967
lclavicle 4.33351e-014 -3.18055e-014
lhumerus -44.7047 -37.0068 111.425
lradius 23.3337
lwrist 0.728559
lhand 14.34 0.461379
lfingers 7.12502
lthumb 39.2301 25.9151
rfemur -35.022 -31.0114 42.7271
rtibia 21.8982
rfoot -5.66396 36.4391
rtoes 22.9495
lfemur -221.028 58.7959 -168.937
ltibia 161.255
lfoot -15.0062 -17.9585
ltoes -48.0067
